<?xml version="1.0" standalone="no"?>
<!DOCTYPE svg PUBLIC "-//W3C//DTD SVG 20010904//EN"
 "http://www.w3.org/TR/2001/REC-SVG-20010904/DTD/svg10.dtd">
<svg version="1.0" xmlns="http://www.w3.org/2000/svg"
 width="400.000000pt" height="400.000000pt" viewBox="0 0 400.000000 400.000000"
 preserveAspectRatio="xMidYMid meet">

<g transform="translate(0.000000,400.000000) scale(0.100000,-0.100000)"
fill="#000000" stroke="none">
<path d="M1789 3796 c-2 -2 -37 -6 -77 -10 -41 -3 -102 -13 -135 -22 -34 -9
-73 -18 -87 -20 -42 -8 -90 -27 -90 -37 0 -5 -6 -7 -13 -4 -8 3 -14 -1 -14 -8
0 -7 5 -11 11 -9 6 2 17 -5 24 -16 12 -19 11 -20 -15 -14 -27 7 -27 7 -10 -11
15 -14 16 -20 6 -26 -8 -4 -10 -11 -6 -15 3 -4 13 -2 20 4 8 7 16 9 19 6 3 -2
23 2 44 10 111 43 308 76 484 82 80 3 161 8 180 11 l35 6 -30 7 -30 8 32 1
c17 0 34 -5 36 -11 3 -8 6 -6 6 5 1 14 7 16 34 12 21 -4 27 -2 18 4 -7 5 -11
13 -8 18 3 5 -6 9 -21 10 -15 0 -19 -1 -9 -4 25 -7 21 -18 -7 -18 -13 0 -22 4
-19 9 3 4 -3 6 -13 2 -11 -3 -26 -1 -34 4 -11 7 -6 10 20 11 27 1 23 3 -20 9
-56 8 -323 13 -331 6z m272 -23 c13 -16 12 -17 -3 -4 -10 7 -18 15 -18 17 0 8
8 3 21 -13z m34 -51 c-3 -3 -11 0 -18 7 -9 10 -8 11 6 5 10 -3 15 -9 12 -12z
m-640 -2 c-3 -5 -1 -10 5 -10 6 0 8 -4 5 -10 -4 -6 -11 -5 -19 3 -10 9 -11 14
-2 19 15 10 18 10 11 -2z m45 -53 c0 -2 -10 -12 -22 -23 l-23 -19 19 23 c18
21 26 27 26 19z"/>
<path d="M2278 3763 c7 -3 16 -2 19 1 4 3 -2 6 -13 5 -11 0 -14 -3 -6 -6z"/>
<path d="M2205 3720 c-3 -5 -21 -11 -38 -11 -18 -1 -1 -5 38 -10 38 -4 72 -6
74 -3 2 2 -5 4 -17 4 -11 0 -27 7 -36 15 -9 9 -17 11 -21 5z"/>
<path d="M2238 3723 c7 -3 16 -2 19 1 4 3 -2 6 -13 5 -11 0 -14 -3 -6 -6z"/>
<path d="M1296 3573 c-6 -14 -5 -15 5 -6 7 7 10 15 7 18 -3 3 -9 -2 -12 -12z"/>
<path d="M1834 3466 c-48 -21 -64 -52 -64 -121 0 -46 7 -75 31 -125 36 -78
131 -240 140 -240 20 0 18 333 -2 346 -4 2 -5 12 -2 21 4 10 2 14 -5 9 -7 -4
-9 2 -6 19 2 14 0 44 -6 65 -12 45 -30 50 -86 26z"/>
<path d="M1633 3338 c-26 -27 -53 -88 -53 -119 0 -38 30 -85 78 -122 69 -52
242 -148 242 -134 -1 31 -153 284 -222 370 l-23 28 -22 -23z"/>
<path d="M2212 3254 c-71 -100 -179 -291 -170 -299 6 -6 201 108 248 145 22
18 47 45 55 61 30 56 14 129 -37 176 l-23 21 -73 -104z"/>
<path d="M1990 3125 c0 -83 4 -145 9 -145 15 0 127 190 141 239 7 24 5 26 -19
25 -14 -1 -28 -3 -31 -4 -10 -4 -45 2 -55 9 -5 5 -18 11 -27 14 -17 6 -18 -5
-18 -138z"/>
<path d="M1520 3079 c0 -62 25 -108 76 -140 31 -19 51 -22 160 -23 68 0 124 1
124 4 0 6 -252 156 -317 189 l-43 21 0 -51z"/>
<path d="M2305 3067 c-159 -90 -245 -141 -245 -147 0 -3 60 -3 134 0 154 6
175 14 214 90 22 44 29 104 14 114 -4 2 -57 -23 -117 -57z"/>
<path d="M1738 2891 c-69 -3 -129 -9 -132 -12 -12 -12 73 -79 100 -79 30 0
135 53 160 81 9 10 13 18 8 17 -5 -1 -66 -4 -136 -7z"/>
<path d="M2070 2888 c0 -13 136 -88 161 -88 30 0 84 32 99 59 9 18 7 21 -12
26 -37 8 -248 11 -248 3z"/>
<path d="M1520 2629 c0 -60 3 -80 13 -77 6 3 13 19 15 36 3 29 6 32 38 32 32
0 34 -2 34 -36 0 -24 4 -34 13 -32 8 3 13 31 15 81 2 64 0 77 -13 77 -10 0
-15 -10 -15 -30 0 -28 -3 -30 -35 -30 -32 0 -35 2 -35 30 0 20 -5 30 -15 30
-12 0 -15 -16 -15 -81z"/>
<path d="M1693 2644 c3 -40 10 -70 18 -75 29 -19 60 -21 84 -5 22 15 25 23 25
81 0 51 -3 65 -15 65 -12 0 -15 -13 -15 -59 0 -52 -3 -60 -22 -67 -30 -9 -48
19 -48 78 0 38 -3 48 -16 48 -14 0 -16 -9 -11 -66z"/>
<path d="M1875 2638 c-21 -48 -29 -76 -23 -83 7 -7 15 -2 25 13 21 30 79 31
88 1 7 -22 32 -20 27 2 -9 42 -57 139 -69 139 -8 0 -29 -33 -48 -72z m59 6 c9
-23 8 -24 -13 -24 -14 0 -18 5 -14 20 6 24 19 26 27 4z"/>
<path d="M2016 2639 c13 -39 26 -75 29 -80 12 -18 34 5 45 49 l12 47 14 -30
c7 -16 13 -35 14 -41 0 -6 6 -17 14 -23 12 -10 17 -7 29 16 8 15 19 44 25 63
5 19 13 43 17 54 6 14 4 17 -10 15 -12 -3 -25 -22 -35 -54 l-17 -50 -15 50
c-20 66 -41 70 -58 10 -7 -25 -16 -47 -20 -50 -3 -2 -12 18 -19 45 -9 37 -18
50 -31 50 -17 0 -16 -5 6 -71z"/>
<path d="M2252 2634 l3 -77 50 0 c28 0 51 5 53 12 2 7 -11 11 -37 11 -34 0
-41 3 -41 19 0 14 8 21 25 23 14 2 26 8 26 13 0 6 -12 11 -26 13 -43 6 -31 32
15 32 29 0 40 4 40 15 0 12 -13 15 -55 15 l-56 0 3 -76z"/>
<path d="M2400 2629 c0 -60 3 -80 13 -77 8 3 13 31 15 81 2 64 0 77 -13 77
-12 0 -15 -15 -15 -81z"/>
<path d="M760 2380 c0 -7 410 -10 1210 -10 800 0 1210 3 1210 10 0 7 -410 10
-1210 10 -800 0 -1210 -3 -1210 -10z"/>
<path d="M1290 2046 c0 -69 4 -127 8 -130 18 -11 31 12 34 58 l3 49 60 0 60 0
5 -54 c3 -30 8 -53 13 -51 4 1 12 2 17 2 6 0 10 48 10 125 0 117 -1 125 -19
125 -17 0 -20 -8 -23 -52 l-3 -53 -39 -3 c-22 -2 -50 -1 -63 2 -20 6 -23 12
-23 56 0 43 -3 50 -20 50 -19 0 -20 -7 -20 -124z"/>
<path d="M1540 2074 c0 -132 19 -163 102 -164 35 0 54 6 75 24 27 23 28 28 31
130 4 100 3 106 -16 106 -18 0 -20 -9 -24 -94 -5 -110 -15 -128 -67 -124 -48
4 -61 32 -61 136 0 75 -2 82 -20 82 -19 0 -20 -7 -20 -96z"/>
<path d="M1854 2133 c-9 -21 -31 -74 -50 -118 -19 -45 -34 -86 -34 -91 0 -24
33 -8 48 23 15 32 18 33 72 33 55 0 56 -1 69 -35 12 -33 19 -36 59 -26 1 1 -4
14 -13 31 -8 16 -15 33 -15 37 0 5 -6 23 -15 41 -8 17 -22 49 -31 70 -27 63
-30 67 -53 70 -17 3 -25 -5 -37 -35z m41 -33 c-3 -5 -2 -10 3 -10 5 0 13 -16
19 -35 l11 -35 -38 0 -39 0 16 45 c8 25 19 45 25 45 5 0 6 -4 3 -10z"/>
<path d="M2010 2162 c0 -4 16 -61 35 -126 19 -66 35 -120 35 -122 0 -1 8 -1
18 0 12 2 26 29 48 96 22 66 33 87 37 74 4 -10 17 -53 30 -94 19 -57 28 -75
42 -75 15 0 25 22 51 104 49 157 48 153 23 149 -22 -3 -25 -10 -60 -138 l-12
-45 -29 93 c-25 82 -32 93 -50 90 -17 -2 -25 -18 -44 -82 -22 -77 -44 -119
-42 -80 1 10 -6 42 -14 69 -9 28 -16 52 -16 55 -3 23 -17 40 -33 40 -10 0 -19
-3 -19 -8z"/>
<path d="M2368 2163 c-2 -5 -2 -62 0 -128 l3 -120 82 2 c45 1 90 2 100 2 9 1
17 8 17 16 0 12 -16 15 -80 15 l-80 0 1 43 c0 23 2 38 5 32 2 -6 29 -8 66 -5
49 4 64 9 66 23 3 14 -5 17 -51 17 -74 0 -87 6 -87 41 l0 29 75 0 c68 0 75 2
75 20 0 19 -7 20 -94 20 -52 0 -96 -3 -98 -7z"/>
<path d="M2600 2045 c0 -118 1 -125 20 -125 19 0 20 7 20 125 0 118 -1 125
-20 125 -19 0 -20 -7 -20 -125z"/>
<path d="M1593 2075 c0 -44 2 -61 4 -37 2 23 2 59 0 80 -2 20 -4 1 -4 -43z"/>
<path d="M1729 1923 c-13 -16 -12 -17 4 -4 9 7 17 15 17 17 0 8 -8 3 -21 -13z"/>
<path d="M795 1743 c-37 -10 -64 -35 -76 -70 -14 -42 -7 -104 15 -138 21 -32
79 -48 128 -35 56 16 90 72 49 83 -13 3 -22 -3 -30 -19 -11 -24 -45 -38 -78
-32 -10 1 -26 20 -37 41 -16 33 -17 45 -7 78 12 38 35 59 66 59 9 0 13 -4 10
-10 -3 -5 0 -7 8 -5 7 3 21 -3 31 -14 10 -11 25 -17 37 -14 25 7 24 14 -8 45
-29 27 -74 40 -108 31z"/>
<path d="M2064 1743 c-12 -2 -33 -17 -48 -32 -51 -53 -44 -160 12 -197 54 -35
151 -14 167 37 12 36 -15 41 -46 8 -45 -48 -100 -35 -120 29 -26 87 49 155
109 100 25 -23 62 -28 62 -9 0 12 -51 61 -64 61 -6 0 -20 2 -31 4 -11 2 -30 2
-41 -1z"/>
<path d="M2830 1744 c-64 -22 -90 -57 -90 -124 0 -79 48 -125 127 -123 64 2
113 59 113 130 0 33 -31 88 -57 101 -25 13 -75 22 -93 16z m72 -54 c31 -23 41
-68 27 -110 -20 -56 -92 -70 -128 -24 -64 82 23 196 101 134z"/>
<path d="M960 1620 l0 -120 95 0 c78 0 95 3 95 15 0 12 -15 15 -67 16 -38 1
-71 1 -75 0 -5 0 -8 17 -8 39 l0 40 65 0 c51 0 65 3 65 15 0 12 -14 15 -65 15
l-65 0 0 30 0 30 70 0 c63 0 70 2 70 20 0 19 -7 20 -90 20 l-90 0 0 -120z"/>
<path d="M1180 1620 c0 -113 1 -120 20 -120 17 0 20 7 20 50 0 47 2 50 25 50
18 0 35 -13 62 -50 30 -40 43 -50 66 -50 l29 0 -42 50 c-24 28 -41 52 -39 54
2 2 14 9 27 15 17 9 22 20 22 51 0 55 -25 70 -117 70 l-73 0 0 -120z m148 68
c7 -7 8 -17 1 -30 -7 -14 -21 -18 -59 -18 -49 0 -50 1 -50 30 0 29 1 30 48 30
26 0 53 -5 60 -12z"/>
<path d="M1400 1721 c0 -16 8 -20 38 -23 l37 -3 3 -97 c2 -90 4 -98 22 -98 19
0 20 7 20 100 l0 100 40 0 c33 0 40 3 40 20 0 19 -7 20 -100 20 -92 0 -100 -1
-100 -19z"/>
<path d="M1618 1728 c-2 -7 -2 -61 0 -120 3 -98 6 -108 23 -108 18 0 19 9 19
120 0 111 -1 120 -19 120 -10 0 -21 -6 -23 -12z"/>
<path d="M1700 1620 c0 -113 1 -120 20 -120 18 0 20 7 20 55 l0 55 60 0 c47 0
60 3 60 15 0 12 -13 15 -60 15 -60 0 -60 0 -60 30 0 29 0 29 67 32 55 2 68 6
71 21 3 15 -6 17 -87 17 l-91 0 0 -120z"/>
<path d="M1910 1620 c0 -113 1 -120 20 -120 19 0 20 7 20 120 0 113 -1 120
-20 120 -19 0 -20 -7 -20 -120z"/>
<path d="M2266 1645 c-22 -52 -42 -96 -45 -97 -3 -2 -17 -17 -31 -33 -22 -26
-22 -28 -2 -11 12 11 22 14 22 8 0 -25 38 -11 50 18 12 28 16 30 65 30 49 0
53 -2 65 -30 9 -21 19 -30 36 -30 27 0 32 -19 -42 153 -52 120 -66 119 -118
-8z m94 -43 c0 -8 -12 -12 -35 -10 -19 1 -35 3 -35 3 0 1 7 23 16 49 l17 48
18 -38 c10 -22 18 -45 19 -52z"/>
<path d="M2440 1720 c0 -17 7 -20 40 -20 l40 0 0 -100 c0 -93 1 -100 20 -100
19 0 20 7 20 100 l0 100 40 0 c33 0 40 3 40 20 0 19 -7 20 -100 20 -93 0 -100
-1 -100 -20z"/>
<path d="M2660 1620 c0 -113 1 -120 20 -120 19 0 20 7 20 120 0 113 -1 120
-20 120 -19 0 -20 -7 -20 -120z"/>
<path d="M3010 1620 c0 -100 3 -120 15 -120 12 0 15 17 15 92 l0 91 62 -92
c48 -72 66 -91 82 -89 20 3 21 11 24 121 2 111 2 117 -17 117 -18 0 -20 -8
-23 -87 l-3 -87 -58 87 c-40 59 -65 87 -78 87 -18 0 -19 -9 -19 -120z"/>
<path d="M2059 1673 c-13 -16 -12 -17 4 -4 16 13 21 21 13 21 -2 0 -10 -8 -17
-17z"/>
<path d="M1369 1613 c-13 -16 -12 -17 4 -4 16 13 21 21 13 21 -2 0 -10 -8 -17
-17z"/>
<path d="M911 1510 c-13 -11 -19 -20 -14 -20 6 0 18 9 28 20 23 25 17 25 -14
0z"/>
<path d="M2944 1504 c-18 -14 -18 -15 4 -4 12 6 22 13 22 15 0 8 -5 6 -26 -11z"/>
<path d="M2245 1490 c-16 -7 -17 -9 -3 -9 9 -1 20 4 23 9 7 11 7 11 -20 0z"/>
<path d="M1013 1483 c20 -2 54 -2 75 0 20 2 3 4 -38 4 -41 0 -58 -2 -37 -4z"/>
<path d="M1138 1483 c7 -3 16 -2 19 1 4 3 -2 6 -13 5 -11 0 -14 -3 -6 -6z"/>
<path d="M1508 1483 c7 -3 16 -2 19 1 4 3 -2 6 -13 5 -11 0 -14 -3 -6 -6z"/>
<path d="M1658 1483 c7 -3 16 -2 19 1 4 3 -2 6 -13 5 -11 0 -14 -3 -6 -6z"/>
<path d="M1738 1483 c7 -3 16 -2 19 1 4 3 -2 6 -13 5 -11 0 -14 -3 -6 -6z"/>
<path d="M1938 1483 c7 -3 16 -2 19 1 4 3 -2 6 -13 5 -11 0 -14 -3 -6 -6z"/>
<path d="M2698 1483 c7 -3 16 -2 19 1 4 3 -2 6 -13 5 -11 0 -14 -3 -6 -6z"/>
<path d="M3038 1483 c7 -3 16 -2 19 1 4 3 -2 6 -13 5 -11 0 -14 -3 -6 -6z"/>
<path d="M750 1280 c0 -7 412 -10 1215 -10 803 0 1215 3 1215 10 0 7 -412 10
-1215 10 -803 0 -1215 -3 -1215 -10z"/>
<path d="M2497 585 c-8 -8 -17 -12 -19 -10 -3 3 -40 -6 -84 -19 -143 -43 -267
-59 -445 -60 l-166 -1 10 -22 c8 -19 13 -21 31 -11 25 14 66 17 73 5 7 -11
-17 -37 -35 -37 -8 0 -12 3 -8 8 4 4 13 7 18 7 6 0 13 5 15 10 2 6 -8 10 -21
10 -13 0 -22 -4 -19 -9 4 -5 -1 -15 -11 -21 -14 -10 4 -14 96 -20 62 -3 133
-4 158 -1 25 3 72 8 105 11 78 7 275 56 275 67 0 5 5 6 12 2 7 -4 8 -3 4 4 -4
7 -1 12 6 12 10 0 10 2 -1 9 -11 7 -11 10 0 15 8 3 4 3 -8 1 -25 -7 -40 12
-23 28 10 9 11 9 6 0 -9 -16 10 -17 19 -3 5 8 11 7 21 -1 11 -9 14 -9 14 0 0
7 5 9 13 5 9 -6 9 -5 0 8 -7 8 -10 18 -6 21 3 4 1 7 -5 7 -6 0 -17 -7 -25 -15z
m-32 -75 c-3 -5 -11 -10 -16 -10 -6 0 -7 5 -4 10 3 6 11 10 16 10 6 0 7 -4 4
-10z m-641 -28 c3 -5 -1 -9 -9 -9 -8 0 -15 4 -15 9 0 4 4 8 9 8 6 0 12 -4 15
-8z"/>
<path d="M2510 509 c0 -5 5 -7 10 -4 6 3 10 8 10 11 0 2 -4 4 -10 4 -5 0 -10
-5 -10 -11z"/>
<path d="M1719 483 c-12 -16 -12 -17 1 -7 8 7 24 14 35 17 19 4 19 5 -1 6 -12
0 -28 -7 -35 -16z"/>
<path d="M1769 473 c-1 -5 -1 -11 0 -15 0 -5 -7 -8 -16 -9 -13 0 -11 -3 6 -10
14 -5 32 -8 40 -6 9 3 5 5 -9 6 -20 1 -22 3 -10 11 11 7 11 10 2 10 -7 0 -10
5 -7 10 3 6 4 10 1 10 -3 0 -7 -3 -7 -7z"/>
<path d="M1658 453 c7 -3 16 -2 19 1 4 3 -2 6 -13 5 -11 0 -14 -3 -6 -6z"/>
<path d="M1220 370 c-9 -6 -10 -10 -3 -10 6 0 15 5 18 10 8 12 4 12 -15 0z"/>
<path d="M1280 341 c8 -4 29 -11 45 -15 19 -4 25 -3 15 3 -8 4 -28 11 -45 15
-19 4 -25 3 -15 -3z"/>
</g>
</svg>
